<svg width="16" height="17" viewBox="0 0 16 17" fill="none" xmlns="http://www.w3.org/2000/svg">
<g clip-path="url(#clip0_1863_22184)">
<path d="M7.99962 5.25326C7.57335 5.25326 7.15125 5.33722 6.75743 5.50034C6.36361 5.66347 6.00577 5.90257 5.70435 6.20399C5.40293 6.50541 5.16384 6.86324 5.00071 7.25707C4.83758 7.65089 4.75362 8.07298 4.75362 8.49926C4.75362 8.92553 4.83758 9.34762 5.00071 9.74145C5.16384 10.1353 5.40293 10.4931 5.70435 10.7945C6.00577 11.0959 6.36361 11.335 6.75743 11.4982C7.15125 11.6613 7.57335 11.7453 7.99962 11.7453C8.86051 11.7453 9.68615 11.4033 10.2949 10.7945C10.9036 10.1858 11.2456 9.36015 11.2456 8.49926C11.2456 7.63836 10.9036 6.81273 10.2949 6.20399C9.68615 5.59524 8.86051 5.25326 7.99962 5.25326ZM5.75362 8.49926C5.75362 7.90358 5.99025 7.3323 6.41146 6.91109C6.83267 6.48989 7.40395 6.25326 7.99962 6.25326C8.5953 6.25326 9.16658 6.48989 9.58778 6.91109C10.009 7.3323 10.2456 7.90358 10.2456 8.49926C10.2456 9.09493 10.009 9.66621 9.58778 10.0874C9.16658 10.5086 8.5953 10.7453 7.99962 10.7453C7.40395 10.7453 6.83267 10.5086 6.41146 10.0874C5.99025 9.66621 5.75362 9.09493 5.75362 8.49926Z" fill="#212529"/>
<path d="M9.79562 1.84226C9.26862 0.0522559 6.73062 0.0522559 6.20362 1.84226L6.10962 2.16126C6.07282 2.28621 6.00852 2.40134 5.92144 2.49821C5.83436 2.59509 5.7267 2.67125 5.60636 2.72111C5.48602 2.77097 5.35605 2.79327 5.22598 2.78637C5.0959 2.77948 4.96901 2.74356 4.85462 2.68126L4.56262 2.52126C2.92262 1.62926 1.12962 3.42326 2.02262 5.06226L2.18162 5.35426C2.24393 5.46865 2.27984 5.59553 2.28674 5.72561C2.29364 5.85569 2.27134 5.98566 2.22147 6.106C2.17161 6.22634 2.09545 6.33399 1.99858 6.42107C1.90171 6.50815 1.78657 6.57245 1.66162 6.60926L1.34262 6.70326C-0.447378 7.23026 -0.447378 9.76826 1.34262 10.2953L1.66162 10.3893C1.78657 10.4261 1.90171 10.4904 1.99858 10.5774C2.09545 10.6645 2.17161 10.7722 2.22147 10.8925C2.27134 11.0129 2.29364 11.1428 2.28674 11.2729C2.27984 11.403 2.24393 11.5299 2.18162 11.6443L2.02162 11.9363C1.12962 13.5763 2.92262 15.3703 4.56262 14.4763L4.85462 14.3173C4.96901 14.255 5.0959 14.219 5.22598 14.2121C5.35605 14.2052 5.48602 14.2275 5.60636 14.2774C5.7267 14.3273 5.83436 14.4034 5.92144 14.5003C6.00852 14.5972 6.07282 14.7123 6.10962 14.8373L6.20362 15.1563C6.73062 16.9463 9.26862 16.9463 9.79562 15.1563L9.88962 14.8373C9.92643 14.7123 9.99072 14.5972 10.0778 14.5003C10.1649 14.4034 10.2725 14.3273 10.3929 14.2774C10.5132 14.2275 10.6432 14.2052 10.7733 14.2121C10.9033 14.219 11.0302 14.255 11.1446 14.3173L11.4366 14.4773C13.0766 15.3703 14.8706 13.5753 13.9766 11.9363L13.8176 11.6443C13.7553 11.5299 13.7194 11.403 13.7125 11.2729C13.7056 11.1428 13.7279 11.0129 13.7778 10.8925C13.8276 10.7722 13.9038 10.6645 14.0007 10.5774C14.0975 10.4904 14.2127 10.4261 14.3376 10.3893L14.6566 10.2953C16.4466 9.76826 16.4466 7.23026 14.6566 6.70326L14.3376 6.60926C14.2127 6.57245 14.0975 6.50815 14.0007 6.42107C13.9038 6.33399 13.8276 6.22634 13.7778 6.106C13.7279 5.98566 13.7056 5.85569 13.7125 5.72561C13.7194 5.59553 13.7553 5.46865 13.8176 5.35426L13.9776 5.06226C14.8706 3.42226 13.0756 1.62926 11.4366 2.52226L11.1446 2.68126C11.0302 2.74356 10.9033 2.77948 10.7733 2.78637C10.6432 2.79327 10.5132 2.77097 10.3929 2.72111C10.2725 2.67125 10.1649 2.59509 10.0778 2.49821C9.99072 2.40134 9.92643 2.28621 9.88962 2.16126L9.79562 1.84226ZM7.16262 2.12526C7.40862 1.29026 8.59062 1.29026 8.83662 2.12526L8.93062 2.44426C9.00964 2.71234 9.14766 2.95934 9.33455 3.16716C9.52144 3.37497 9.75247 3.53832 10.0107 3.64524C10.2689 3.75215 10.5478 3.79992 10.8269 3.78505C11.106 3.77017 11.3782 3.69302 11.6236 3.55926L11.9146 3.39926C12.6786 2.98426 13.5146 3.81926 13.0986 4.58426L12.9396 4.87626C12.8061 5.12168 12.7291 5.39388 12.7144 5.67291C12.6997 5.95194 12.7476 6.23073 12.8546 6.48884C12.9616 6.74695 13.125 6.97786 13.3328 7.16463C13.5406 7.35141 13.7876 7.48931 14.0556 7.56826L14.3736 7.66226C15.2086 7.90826 15.2086 9.09026 14.3736 9.33626L14.0546 9.43026C13.7865 9.50928 13.5395 9.64729 13.3317 9.83418C13.1239 10.0211 12.9606 10.2521 12.8536 10.5103C12.7467 10.7686 12.699 11.0474 12.7138 11.3265C12.7287 11.6056 12.8059 11.8779 12.9396 12.1233L13.0996 12.4143C13.5146 13.1783 12.6796 14.0143 11.9146 13.5983L11.6236 13.4393C11.3782 13.3055 11.1059 13.2284 10.8267 13.2136C10.5476 13.1988 10.2686 13.2466 10.0104 13.3536C9.75216 13.4607 9.52115 13.6241 9.3343 13.832C9.14746 14.04 9.00953 14.2871 8.93062 14.5553L8.83662 14.8733C8.59062 15.7083 7.40862 15.7083 7.16262 14.8733L7.06862 14.5543C6.98957 14.2863 6.85157 14.0394 6.66475 13.8317C6.47793 13.624 6.24701 13.4607 5.98891 13.3538C5.73081 13.2469 5.45206 13.1991 5.17309 13.2139C4.89412 13.2287 4.62198 13.3057 4.37662 13.4393L4.08462 13.5993C3.32062 14.0143 2.48462 13.1793 2.90062 12.4143L3.05962 12.1233C3.19357 11.8778 3.27087 11.6055 3.28585 11.3263C3.30082 11.0471 3.2531 10.7681 3.14617 10.5097C3.03924 10.2513 2.87582 10.0202 2.6679 9.83324C2.45998 9.64628 2.21285 9.50824 1.94462 9.42926L1.62562 9.33526C0.790622 9.08926 0.790622 7.90726 1.62562 7.66126L1.94462 7.56726C2.21243 7.48817 2.45916 7.3502 2.66676 7.16344C2.87437 6.97669 3.03759 6.74588 3.14448 6.48791C3.25136 6.22994 3.29922 5.95133 3.28454 5.67248C3.26986 5.39362 3.19301 5.12158 3.05962 4.87626L2.89962 4.58426C2.48462 3.82026 3.31962 2.98426 4.08462 3.40026L4.37662 3.55926C4.62198 3.69283 4.89412 3.76983 5.17309 3.78461C5.45206 3.79939 5.73081 3.75158 5.98891 3.64467C6.24701 3.53777 6.47793 3.37448 6.66475 3.16678C6.85157 2.95907 6.98957 2.7122 7.06862 2.44426L7.16262 2.12526Z" fill="#212529"/>
</g>
<defs>
<clipPath id="clip0_1863_22184">
<rect width="16" height="16" fill="white" transform="translate(0 0.5)"/>
</clipPath>
</defs>
</svg>
