<svg width="18" height="18" viewBox="0 0 18 18" fill="none" xmlns="http://www.w3.org/2000/svg">
<g clip-path="url(#clip0_1111_33739)">
<path d="M12.9516 2.41547C12.9445 2.41899 12.934 2.42603 12.9269 2.43307C10.9687 4.39082 9.01406 6.34856 7.06289 8.30983C6.99609 8.37673 6.94687 8.47533 6.92929 8.56687C6.75 9.42251 6.58125 10.2781 6.40898 11.1338C6.34218 11.4683 6.56367 11.6795 6.90468 11.6126C7.72382 11.4507 8.54648 11.2922 9.36562 11.1162C9.51679 11.0845 9.67499 10.9965 9.78398 10.8873C11.6894 8.98941 13.5914 7.08096 15.4934 5.17603C15.5355 5.13378 15.5707 5.09152 15.6023 5.06335C14.7129 4.17955 13.834 3.30279 12.9516 2.41547Z" fill="white"/>
<path d="M0 4.97185C0.105469 4.69016 0.172266 4.38382 0.319922 4.12678C0.741797 3.40495 1.3957 3.01762 2.23242 3.0141C4.22578 3.00002 6.21563 3.00706 8.20899 3.01058C8.67305 3.01058 9.00703 3.33805 9 3.77467C8.99297 4.20072 8.6625 4.5141 8.20547 4.5141C6.2543 4.5141 4.30313 4.5141 2.35195 4.5141C1.79648 4.5141 1.50469 4.80636 1.50469 5.35565C1.50469 8.79931 1.50469 12.2465 1.50469 15.6902C1.50469 16.2359 1.79297 16.5282 2.33789 16.5282C5.7832 16.5282 9.22852 16.5282 12.6738 16.5282C13.2117 16.5282 13.5035 16.2254 13.5035 15.6831C13.5035 13.7218 13.5035 11.7641 13.5035 9.80283C13.5035 9.25354 13.9957 8.89086 14.4949 9.05988C14.8113 9.16551 15.0012 9.45072 15.0047 9.82396C15.0082 10.5 15.0047 11.1726 15.0047 11.8486C15.0047 13.0986 15.0047 14.3486 15.0047 15.5986C15.0047 16.8345 14.4281 17.6127 13.2504 17.9789C13.2398 17.9824 13.2328 17.993 13.2223 18C9.40078 18 5.58281 18 1.76133 18C1.71914 17.9824 1.68047 17.9613 1.63477 17.9472C1.04063 17.7676 0.576563 17.412 0.288281 16.8662C0.158203 16.6162 0.0949219 16.331 0 16.0634C0 12.3662 0 8.66903 0 4.97185Z" fill="#3B5A9A"/>
<path d="M18 2.1162C17.9016 2.71831 17.543 3.15493 17.1141 3.5493C16.8785 3.76761 16.657 4.00352 16.4496 4.21479C15.5672 3.33099 14.6918 2.45071 13.7988 1.55986C13.8164 1.53874 13.8621 1.48944 13.9113 1.44367C14.1961 1.15845 14.4809 0.869722 14.7691 0.584511C15.307 0.0563417 15.9504 -0.133799 16.6711 0.0880318C17.3918 0.309863 17.8242 0.816905 17.9719 1.55986C17.9754 1.58099 17.993 1.5986 18 1.61972C18 1.78874 18 1.95423 18 2.1162Z" fill="#3B5A9A"/>
<path d="M12.9515 2.41547C13.8374 3.30279 14.7128 4.17955 15.5953 5.06335C15.5671 5.09504 15.5285 5.1373 15.4863 5.17603C13.5843 7.08096 11.6859 8.98589 9.7769 10.8873C9.66792 10.9965 9.50972 11.0845 9.35854 11.1162C8.5394 11.2922 7.72026 11.4507 6.89761 11.6126C6.56011 11.6795 6.33862 11.4683 6.4019 11.1338C6.57065 10.2781 6.74292 9.42251 6.92222 8.56687C6.93979 8.47533 6.99253 8.37673 7.05581 8.30983C9.01401 6.34856 10.9687 4.39082 12.9269 2.43307C12.9339 2.42603 12.9445 2.41899 12.9515 2.41547Z" fill="#3B5A9A"/>
</g>
<defs>
<clipPath id="clip0_1111_33739">
<rect width="18" height="18" fill="white"/>
</clipPath>
</defs>
</svg>
